<svg xmlns="http://www.w3.org/2000/svg" xmlns:xlink="http://www.w3.org/1999/xlink" width="500" zoomAndPan="magnify" viewBox="0 0 375 374.999991" height="500" preserveAspectRatio="xMidYMid meet" version="1.0"><defs><clipPath id="c4f712a779"><path d="M 244 170 L 345.402344 170 L 345.402344 205 L 244 205 Z M 244 170 " clip-rule="nonzero"/></clipPath><clipPath id="9d8c8c14ee"><path d="M 245 196 L 345.402344 196 L 345.402344 215 L 245 215 Z M 245 196 " clip-rule="nonzero"/></clipPath><clipPath id="82c310bba1"><path d="M 163 31.429688 L 183 31.429688 L 183 155 L 163 155 Z M 163 31.429688 " clip-rule="nonzero"/></clipPath><clipPath id="bdb4ee88d4"><path d="M 29.652344 196 L 130 196 L 130 215 L 29.652344 215 Z M 29.652344 196 " clip-rule="nonzero"/></clipPath><clipPath id="a9bbba67ad"><path d="M 192 31.429688 L 212 31.429688 L 212 155 L 192 155 Z M 192 31.429688 " clip-rule="nonzero"/></clipPath><clipPath id="736c386250"><path d="M 29.652344 170 L 131 170 L 131 205 L 29.652344 205 Z M 29.652344 170 " clip-rule="nonzero"/></clipPath><clipPath id="d4eae68900"><path d="M 126 334 L 154 334 L 154 343.429688 L 126 343.429688 Z M 126 334 " clip-rule="nonzero"/></clipPath><clipPath id="cf14e51dc5"><path d="M 221 334 L 249 334 L 249 343.429688 L 221 343.429688 Z M 221 334 " clip-rule="nonzero"/></clipPath></defs><path fill="#d6b151" d="M 226.332031 171.261719 L 308.144531 87.40625 C 304.183594 82.722656 299.957031 78.269531 295.488281 74.078125 Z M 226.332031 171.261719 " fill-opacity="1" fill-rule="nonzero"/><path fill="#d6b151" d="M 127.058594 43.355469 C 121.21875 45.777344 115.554688 48.546875 110.089844 51.621094 L 164.359375 160.101562 Z M 127.058594 43.355469 " fill-opacity="1" fill-rule="nonzero"/><path fill="#d6b151" d="M 156.085938 165.074219 L 101.828125 56.617188 C 96.585938 60.011719 91.558594 63.703125 86.773438 67.671875 Z M 156.085938 165.074219 " fill-opacity="1" fill-rule="nonzero"/><path fill="#d6b151" d="M 154.34375 34.863281 C 148.105469 36.195312 142.007812 37.894531 136.066406 39.9375 L 173.292969 156.464844 Z M 154.34375 34.863281 " fill-opacity="1" fill-rule="nonzero"/><path fill="#d6b151" d="M 338.777344 143.941406 L 241.730469 195.515625 L 342.757812 160.472656 C 341.730469 154.847656 340.390625 149.335938 338.777344 143.941406 Z M 338.777344 143.941406 " fill-opacity="1" fill-rule="nonzero"/><path fill="#d6b151" d="M 232.703125 178.519531 L 324.097656 110.03125 C 321.074219 104.828125 317.765625 99.808594 314.1875 95.003906 Z M 232.703125 178.519531 " fill-opacity="1" fill-rule="nonzero"/><path fill="#d6b151" d="M 328.722656 118.589844 L 237.878906 186.667969 L 335.703125 134.679688 C 333.667969 129.160156 331.332031 123.796875 328.722656 118.589844 Z M 328.722656 118.589844 " fill-opacity="1" fill-rule="nonzero"/><g clip-path="url(#c4f712a779)"><path fill="#d6b151" d="M 344.234375 170.148438 L 244.183594 204.851562 L 345.351562 186.515625 C 345.257812 180.988281 344.882812 175.527344 344.234375 170.148438 Z M 344.234375 170.148438 " fill-opacity="1" fill-rule="nonzero"/></g><g clip-path="url(#9d8c8c14ee)"><path fill="#d6b151" d="M 345.222656 196.324219 L 245.164062 214.453125 L 343.742188 212.023438 C 344.488281 206.867188 344.988281 201.628906 345.222656 196.324219 Z M 345.222656 196.324219 " fill-opacity="1" fill-rule="nonzero"/></g><g clip-path="url(#82c310bba1)"><path fill="#d6b151" d="M 182.691406 31.441406 C 176.296875 31.632812 169.996094 32.203125 163.816406 33.132812 L 182.691406 154.246094 Z M 182.691406 31.441406 " fill-opacity="1" fill-rule="nonzero"/></g><path fill="#d6b151" d="M 273.179688 56.617188 L 218.925781 165.074219 L 288.234375 67.671875 C 283.449219 63.699219 278.417969 60.011719 273.179688 56.617188 Z M 273.179688 56.617188 " fill-opacity="1" fill-rule="nonzero"/><path fill="#d6b151" d="M 36.230469 143.941406 C 34.617188 149.335938 33.28125 154.847656 32.246094 160.472656 L 133.273438 195.515625 Z M 36.230469 143.941406 " fill-opacity="1" fill-rule="nonzero"/><path fill="#d6b151" d="M 46.285156 118.589844 C 43.675781 123.796875 41.339844 129.160156 39.308594 134.679688 L 137.132812 186.667969 Z M 46.285156 118.589844 " fill-opacity="1" fill-rule="nonzero"/><g clip-path="url(#bdb4ee88d4)"><path fill="#d6b151" d="M 129.839844 214.453125 L 29.785156 196.324219 C 30.019531 201.628906 30.519531 206.867188 31.265625 212.027344 Z M 129.839844 214.453125 " fill-opacity="1" fill-rule="nonzero"/></g><path fill="#d6b151" d="M 60.824219 95.003906 C 57.246094 99.808594 53.933594 104.828125 50.910156 110.03125 L 142.308594 178.519531 Z M 60.824219 95.003906 " fill-opacity="1" fill-rule="nonzero"/><path fill="#d6b151" d="M 247.949219 43.355469 L 210.652344 160.105469 L 264.921875 51.625 C 259.453125 48.546875 253.792969 45.777344 247.949219 43.355469 Z M 247.949219 43.355469 " fill-opacity="1" fill-rule="nonzero"/><path fill="#d6b151" d="M 220.664062 34.863281 L 201.710938 156.46875 L 238.9375 39.9375 C 233 37.894531 226.898438 36.195312 220.664062 34.863281 Z M 220.664062 34.863281 " fill-opacity="1" fill-rule="nonzero"/><g clip-path="url(#a9bbba67ad)"><path fill="#d6b151" d="M 192.316406 31.441406 L 192.316406 154.246094 L 211.195312 33.132812 C 205.011719 32.203125 198.710938 31.632812 192.316406 31.441406 Z M 192.316406 31.441406 " fill-opacity="1" fill-rule="nonzero"/></g><g clip-path="url(#736c386250)"><path fill="#d6b151" d="M 30.773438 170.148438 C 30.125 175.527344 29.75 180.988281 29.652344 186.519531 L 130.824219 204.855469 Z M 30.773438 170.148438 " fill-opacity="1" fill-rule="nonzero"/></g><path fill="#d6b151" d="M 148.675781 171.261719 L 79.519531 74.082031 C 75.046875 78.273438 70.820312 82.726562 66.863281 87.410156 Z M 148.675781 171.261719 " fill-opacity="1" fill-rule="nonzero"/><path fill="#013a64" d="M 275.960938 301.550781 C 272.753906 300.371094 269.6875 298.917969 266.726562 297.515625 C 261.496094 295.042969 256.558594 292.703125 251.382812 292.019531 C 241.851562 290.757812 232.582031 295.09375 222.773438 299.683594 C 222.097656 299.996094 221.425781 300.3125 220.75 300.625 L 220.761719 300.65625 C 210.714844 306.375 199.09375 309.285156 187.503906 309.238281 C 175.914062 309.285156 164.292969 306.375 154.242188 300.65625 L 154.261719 300.625 C 153.585938 300.3125 152.90625 299.996094 152.238281 299.683594 C 142.429688 295.09375 133.160156 290.757812 123.625 292.019531 C 118.453125 292.703125 113.515625 295.042969 108.285156 297.515625 C 105.320312 298.921875 102.25 300.371094 99.050781 301.550781 C 93.074219 303.753906 86.929688 304.917969 80.738281 305.542969 C 84.472656 308.972656 88.367188 312.230469 92.417969 315.292969 C 93.546875 314.960938 94.664062 314.605469 95.769531 314.195312 C 98.582031 313.160156 101.328125 311.855469 104.234375 310.484375 C 109.890625 307.808594 115.738281 305.039062 122.382812 304.160156 C 134.660156 302.535156 145.636719 307.671875 156.25 312.632812 C 161.058594 314.878906 165.597656 317.003906 170.238281 318.535156 C 175.792969 320.363281 181.640625 321.277344 187.503906 321.304688 C 193.363281 321.273438 199.214844 320.363281 204.769531 318.535156 C 209.410156 317.003906 213.953125 314.882812 218.757812 312.632812 C 229.375 307.667969 240.347656 302.535156 252.625 304.160156 C 259.265625 305.039062 265.117188 307.808594 270.773438 310.484375 C 273.675781 311.859375 276.425781 313.160156 279.234375 314.195312 C 280.34375 314.605469 281.460938 314.960938 282.585938 315.292969 C 286.640625 312.230469 290.535156 308.972656 294.269531 305.542969 C 288.082031 304.917969 281.9375 303.753906 275.960938 301.550781 Z M 275.960938 301.550781 " fill-opacity="1" fill-rule="nonzero"/><path fill="#013a64" d="M 152.234375 256.621094 C 142.425781 252.035156 133.15625 247.699219 123.621094 248.960938 C 118.449219 249.644531 113.511719 251.984375 108.28125 254.457031 C 105.320312 255.863281 102.25 257.3125 99.046875 258.492188 C 86.34375 263.179688 72.863281 263.191406 59.824219 263.199219 C 57.226562 263.203125 54.542969 263.203125 51.933594 263.242188 C 50.671875 263.261719 49.378906 263.300781 48.066406 263.347656 C 50.242188 267.433594 52.59375 271.40625 55.109375 275.265625 C 56.691406 275.257812 58.269531 275.253906 59.816406 275.253906 C 72.585938 275.242188 84.648438 275.234375 95.765625 271.132812 C 98.578125 270.097656 101.324219 268.792969 104.230469 267.421875 C 109.890625 264.746094 115.738281 261.976562 122.378906 261.097656 C 134.65625 259.472656 145.632812 264.609375 156.246094 269.570312 C 161.054688 271.816406 165.59375 273.941406 170.234375 275.472656 C 175.789062 277.300781 181.636719 278.214844 187.5 278.242188 C 193.359375 278.210938 199.210938 277.296875 204.765625 275.472656 C 209.410156 273.941406 213.949219 271.820312 218.753906 269.570312 C 229.371094 264.605469 240.34375 259.472656 252.621094 261.097656 C 259.261719 261.976562 265.113281 264.746094 270.769531 267.421875 C 273.671875 268.796875 276.421875 270.097656 279.230469 271.132812 C 290.351562 275.234375 302.414062 275.246094 315.179688 275.253906 C 316.730469 275.253906 318.308594 275.257812 319.890625 275.265625 C 322.40625 271.40625 324.753906 267.433594 326.933594 263.347656 C 325.621094 263.296875 324.324219 263.261719 323.066406 263.242188 C 320.457031 263.203125 317.773438 263.199219 315.175781 263.199219 C 302.136719 263.1875 288.65625 263.179688 275.953125 258.492188 C 272.746094 257.3125 269.679688 255.859375 266.71875 254.457031 C 261.488281 251.984375 256.550781 249.644531 251.378906 248.960938 C 241.84375 247.699219 232.574219 252.035156 222.765625 256.621094 C 222.089844 256.9375 221.417969 257.253906 220.742188 257.566406 L 220.757812 257.597656 C 210.707031 263.316406 199.085938 266.226562 187.496094 266.175781 C 175.90625 266.226562 164.285156 263.316406 154.238281 257.597656 L 154.253906 257.566406 C 153.582031 257.253906 152.90625 256.9375 152.234375 256.621094 Z M 152.234375 256.621094 " fill-opacity="1" fill-rule="nonzero"/><g clip-path="url(#d4eae68900)"><path fill="#d6b151" d="M 126.4375 334.878906 C 135.242188 338.574219 144.453125 341.492188 153.984375 343.554688 C 153.398438 343.285156 152.816406 343.007812 152.238281 342.738281 C 143.390625 338.601562 134.988281 334.6875 126.4375 334.878906 Z M 126.4375 334.878906 " fill-opacity="1" fill-rule="nonzero"/></g><g clip-path="url(#cf14e51dc5)"><path fill="#d6b151" d="M 222.773438 342.742188 C 222.195312 343.011719 221.609375 343.285156 221.027344 343.558594 C 230.558594 341.496094 239.769531 338.578125 248.574219 334.882812 C 240.019531 334.6875 231.617188 338.601562 222.773438 342.742188 Z M 222.773438 342.742188 " fill-opacity="1" fill-rule="nonzero"/></g><path fill="#013a64" d="M 266.722656 319.042969 C 261.496094 316.570312 256.558594 314.230469 251.382812 313.546875 C 241.851562 312.285156 232.582031 316.621094 222.773438 321.210938 C 222.097656 321.523438 221.425781 321.839844 220.75 322.15625 L 220.761719 322.183594 C 210.714844 327.902344 199.09375 330.8125 187.503906 330.765625 C 175.914062 330.8125 164.292969 327.902344 154.242188 322.183594 L 154.261719 322.15625 C 153.585938 321.839844 152.90625 321.523438 152.238281 321.210938 C 142.425781 316.621094 133.160156 312.285156 123.625 313.546875 C 118.453125 314.230469 113.515625 316.570312 108.285156 319.042969 C 106.222656 320.019531 104.101562 321.015625 101.925781 321.933594 C 105.414062 324.1875 108.992188 326.308594 112.660156 328.289062 C 115.742188 327.101562 118.957031 326.140625 122.382812 325.6875 C 134.660156 324.066406 145.636719 329.199219 156.25 334.160156 C 161.058594 336.40625 165.597656 338.535156 170.238281 340.0625 C 175.792969 341.894531 181.640625 342.804688 187.503906 342.832031 C 193.363281 342.800781 199.214844 341.890625 204.769531 340.0625 C 209.410156 338.535156 213.953125 336.410156 218.757812 334.160156 C 229.375 329.195312 240.347656 324.066406 252.625 325.6875 C 256.050781 326.144531 259.261719 327.101562 262.347656 328.289062 C 266.015625 326.308594 269.59375 324.1875 273.082031 321.933594 C 270.90625 321.015625 268.789062 320.019531 266.722656 319.042969 Z M 266.722656 319.042969 " fill-opacity="1" fill-rule="nonzero"/><path fill="#013a64" d="M 270.777344 224.363281 C 273.679688 225.738281 276.429688 227.039062 279.238281 228.074219 C 290.359375 232.175781 302.421875 232.1875 315.1875 232.191406 C 317.820312 232.195312 320.542969 232.195312 323.226562 232.242188 C 328.199219 232.316406 333.621094 232.578125 339.132812 233.339844 C 340.246094 229.511719 341.222656 225.632812 342.042969 221.691406 L 268.933594 223.492188 C 269.550781 223.785156 270.164062 224.074219 270.777344 224.363281 Z M 270.777344 224.363281 " fill-opacity="1" fill-rule="nonzero"/><path fill="#013a64" d="M 51.785156 232.246094 C 54.464844 232.199219 57.1875 232.199219 59.820312 232.195312 C 72.589844 232.1875 84.652344 232.179688 95.769531 228.078125 C 98.582031 227.039062 101.328125 225.738281 104.234375 224.367188 C 104.847656 224.078125 105.460938 223.789062 106.074219 223.5 L 32.960938 221.695312 C 33.785156 225.636719 34.761719 229.519531 35.875 233.34375 C 41.390625 232.578125 46.808594 232.320312 51.785156 232.246094 Z M 51.785156 232.246094 " fill-opacity="1" fill-rule="nonzero"/><path fill="#013a64" d="M 152.234375 278.152344 C 142.425781 273.5625 133.15625 269.226562 123.621094 270.488281 C 118.449219 271.171875 113.511719 273.511719 108.28125 275.984375 C 105.320312 277.390625 102.25 278.839844 99.046875 280.019531 C 86.96875 284.472656 74.195312 284.703125 61.765625 284.726562 C 64.910156 288.867188 68.261719 292.839844 71.792969 296.640625 C 80.171875 296.351562 88.1875 295.460938 95.765625 292.664062 C 98.578125 291.628906 101.324219 290.324219 104.230469 288.953125 C 109.890625 286.277344 115.738281 283.507812 122.378906 282.628906 C 134.65625 281.003906 145.632812 286.140625 156.246094 291.101562 C 161.054688 293.347656 165.59375 295.472656 170.234375 297.003906 C 175.789062 298.832031 181.636719 299.746094 187.5 299.773438 C 193.359375 299.742188 199.210938 298.828125 204.765625 297.003906 C 209.410156 295.472656 213.949219 293.351562 218.753906 291.101562 C 229.371094 286.136719 240.34375 281.003906 252.621094 282.628906 C 259.261719 283.507812 265.113281 286.277344 270.769531 288.953125 C 273.671875 290.328125 276.421875 291.628906 279.230469 292.664062 C 286.8125 295.460938 294.828125 296.351562 303.207031 296.640625 C 306.738281 292.839844 310.085938 288.863281 313.234375 284.726562 C 300.804688 284.703125 288.027344 284.476562 275.953125 280.019531 C 272.746094 278.839844 269.679688 277.386719 266.71875 275.984375 C 261.488281 273.511719 256.550781 271.171875 251.378906 270.488281 C 241.84375 269.226562 232.574219 273.5625 222.765625 278.152344 C 222.089844 278.464844 221.417969 278.78125 220.742188 279.09375 L 220.757812 279.125 C 210.707031 284.84375 199.085938 287.753906 187.496094 287.707031 C 175.90625 287.753906 164.285156 284.84375 154.238281 279.125 L 154.253906 279.09375 C 153.582031 278.78125 152.90625 278.464844 152.234375 278.152344 Z M 152.234375 278.152344 " fill-opacity="1" fill-rule="nonzero"/><path fill="#013a64" d="M 156.25 226.511719 C 161.058594 228.757812 165.597656 230.882812 170.238281 232.414062 C 175.792969 234.242188 181.640625 235.152344 187.503906 235.183594 C 193.363281 235.148438 199.214844 234.238281 204.769531 232.414062 C 209.410156 230.882812 213.953125 228.761719 218.757812 226.511719 C 220.101562 225.882812 221.453125 225.25 222.8125 224.628906 L 192.085938 225.386719 L 192.082031 225.613281 L 187.507812 225.5 L 182.933594 225.613281 L 182.929688 225.386719 L 152.203125 224.628906 C 153.550781 225.25 154.90625 225.882812 156.25 226.511719 Z M 156.25 226.511719 " fill-opacity="1" fill-rule="nonzero"/><path fill="#013a64" d="M 323.074219 241.714844 C 320.464844 241.675781 317.78125 241.671875 315.179688 241.671875 C 302.144531 241.660156 288.664062 241.652344 275.960938 236.964844 C 272.753906 235.78125 269.6875 234.332031 266.726562 232.929688 C 261.496094 230.453125 256.558594 228.117188 251.382812 227.433594 C 241.851562 226.171875 232.582031 230.507812 222.773438 235.09375 C 222.097656 235.410156 221.425781 235.722656 220.75 236.039062 L 220.761719 236.070312 C 210.714844 241.789062 199.09375 244.695312 187.503906 244.648438 C 175.914062 244.695312 164.292969 241.789062 154.242188 236.070312 L 154.261719 236.039062 C 153.585938 235.722656 152.90625 235.410156 152.238281 235.09375 C 142.429688 230.507812 133.160156 226.171875 123.625 227.433594 C 118.453125 228.117188 113.515625 230.453125 108.285156 232.929688 C 105.320312 234.332031 102.25 235.78125 99.050781 236.964844 C 86.347656 241.652344 72.867188 241.664062 59.828125 241.671875 C 57.230469 241.675781 54.546875 241.675781 51.9375 241.714844 C 47.816406 241.78125 43.363281 241.976562 38.851562 242.515625 C 40.257812 246.449219 41.816406 250.316406 43.523438 254.101562 C 46.367188 253.910156 49.140625 253.816406 51.785156 253.777344 C 54.464844 253.730469 57.1875 253.730469 59.820312 253.726562 C 72.589844 253.71875 84.652344 253.710938 95.769531 249.609375 C 98.582031 248.574219 101.328125 247.269531 104.234375 245.898438 C 109.890625 243.222656 115.738281 240.453125 122.382812 239.574219 C 134.660156 237.949219 145.636719 243.082031 156.25 248.046875 C 161.058594 250.292969 165.597656 252.417969 170.238281 253.949219 C 175.792969 255.777344 181.640625 256.6875 187.503906 256.71875 C 193.363281 256.683594 199.214844 255.773438 204.769531 253.949219 C 209.410156 252.417969 213.953125 250.296875 218.757812 248.046875 C 229.375 243.078125 240.347656 237.949219 252.625 239.574219 C 259.265625 240.453125 265.117188 243.222656 270.773438 245.898438 C 273.675781 247.273438 276.425781 248.574219 279.234375 249.609375 C 290.355469 253.710938 302.417969 253.722656 315.183594 253.726562 C 317.816406 253.730469 320.539062 253.730469 323.222656 253.777344 C 325.867188 253.816406 328.640625 253.910156 331.484375 254.101562 C 333.1875 250.316406 334.75 246.453125 336.15625 242.515625 C 331.648438 241.976562 327.195312 241.78125 323.074219 241.714844 Z M 323.074219 241.714844 " fill-opacity="1" fill-rule="nonzero"/></svg>